# xmcd CD database file
#
# Track frame offsets:
#	150
#	13887
#	30200
#	43562
#	59637
#	76462
#	91975
#	104975
#	118837
#	138200
#	153875
#	169762
#
# Disc length: 2464 seconds
#
# Revision: 2
# Processed by: cddbd v1.4b41PL1 Copyright (c) Steve Scherf et al.
# Submitted via: Feurio! 1.50.2ß - http://www.feurio.com
#
DISCID=9a099e0c
DTITLE=Various Artist - Sommer Hits 1
DYEAR=1900
DGENRE=
TTITLE0=Pee Gee - Er gehört zu mir
TTITLE1=Nena - Nur geträumt
TTITLE2=Markus - Ich will Spaß
TTITLE3=Tina York - Wir lassen uns das singen nicht verbieten
TTITLE4=Frank Lars - Warum heut´Nacht
TTITLE5=Andreas Martin - Tausend Gute Gründe
TTITLE6=Crickets Five - Wenn der Sommer kommt
TTITLE7=Frank Westen - Heisse Höschen
TTITLE8=Frank Zander - Nur nach Hause
TTITLE9=Kurt Brummer - Herzilein
TTITLE10=Big Joe and The Cherrylips - N´Pils and N´Kurzen
TTITLE11=Holiday - Holiday am Ballermann
EXTD=
EXTT0=
EXTT1=
EXTT2=
EXTT3=
EXTT4=
EXTT5=
EXTT6=
EXTT7=
EXTT8=
EXTT9=
EXTT10=
EXTT11=
PLAYORDER=
